<svg width="26" height="26" viewBox="0 0 26 26" fill="none" xmlns="http://www.w3.org/2000/svg">
<path d="M3.37793 5.91162C4.97698 5.91162 6.25561 7.17902 6.25586 8.72119C6.25586 10.2636 4.97713 11.5317 3.37793 11.5317C1.77882 11.5316 0.5 10.2635 0.5 8.72119C0.500248 7.17908 1.77898 5.91173 3.37793 5.91162Z" fill="black" stroke="#FFCD68"/>
<path d="M3.37793 13.4878C4.97698 13.4878 6.25561 14.7552 6.25586 16.2974C6.25586 17.8397 4.97713 19.1079 3.37793 19.1079C1.77882 19.1078 0.5 17.8397 0.5 16.2974C0.500248 14.7553 1.77898 13.4879 3.37793 13.4878Z" fill="#010101" stroke="#38E3E8"/>
<path d="M12.578 3.4858C12.578 5.31387 11.0656 6.79582 9.19988 6.79582C7.33419 6.79582 5.82174 5.31387 5.82174 3.4858C5.82174 1.65773 7.33419 0.175781 9.19988 0.175781C11.0656 0.175781 12.578 1.65773 12.578 3.4858Z" fill="black"/>
<path d="M9.19983 0.675781C10.7989 0.675781 12.0775 1.94318 12.0778 3.48535C12.0778 5.02773 10.799 6.2959 9.19983 6.2959C7.60065 6.29587 6.3219 5.02771 6.3219 3.48535C6.32215 1.94319 7.6008 0.675808 9.19983 0.675781Z" stroke="#FF0004" stroke-opacity="0.85"/>
<path d="M21.7765 5.91162C23.3755 5.91162 24.6542 7.17902 24.6544 8.72119C24.6544 10.2636 23.3757 11.5317 21.7765 11.5317C20.1774 11.5316 18.8986 10.2635 18.8986 8.72119C18.8988 7.17908 20.1775 5.91173 21.7765 5.91162Z" fill="black" stroke="#0900FF"/>
<path d="M16.3657 0.5C17.9648 0.5 19.2434 1.7674 19.2437 3.30957C19.2437 4.85195 17.9649 6.12012 16.3657 6.12012C14.7666 6.12001 13.4878 4.85188 13.4878 3.30957C13.488 1.76746 14.7668 0.500111 16.3657 0.5Z" fill="black" stroke="#FF00F2"/>
<path d="M8.78918 18.8994C10.3882 18.8994 11.6669 20.1668 11.6671 21.709C11.6671 23.2514 10.3884 24.5195 8.78918 24.5195C7.19008 24.5194 5.91125 23.2513 5.91125 21.709C5.9115 20.1669 7.19023 18.8995 8.78918 18.8994Z" fill="black" stroke="#6806DF"/>
<path d="M16.3657 18.8994C17.9648 18.8994 19.2434 20.1668 19.2437 21.709C19.2437 23.2514 17.9649 24.5195 16.3657 24.5195C14.7666 24.5194 13.4878 23.2513 13.4878 21.709C13.488 20.1669 14.7668 18.8995 16.3657 18.8994Z" fill="black" stroke="white"/>
<path d="M21.7765 13.4878C23.3755 13.4878 24.6542 14.7552 24.6544 16.2974C24.6544 17.8397 23.3757 19.1079 21.7765 19.1079C20.1774 19.1078 18.8986 17.8397 18.8986 16.2974C18.8988 14.7553 20.1775 13.4879 21.7765 13.4878Z" fill="black" stroke="#00FF6A"/>
</svg>
